<svg xmlns="http://www.w3.org/2000/svg" viewBox="0 0 320 180" role="img" aria-labelledby="title desc">
  <title id="title">Integração SuperTEF</title>
  <desc id="desc">Terminal de cartão conectado ao Financeiro</desc>
  <defs>
    <linearGradient id="background" x1="30" y1="20" x2="290" y2="165" gradientUnits="userSpaceOnUse">
      <stop stop-color="#0f2d56"/>
      <stop offset="1" stop-color="#2563eb"/>
    </linearGradient>
    <linearGradient id="screen" x1="124" y1="48" x2="206" y2="104" gradientUnits="userSpaceOnUse">
      <stop stop-color="#dbeafe"/>
      <stop offset="1" stop-color="#67e8f9"/>
    </linearGradient>
  </defs>
  <rect width="320" height="180" rx="24" fill="#eff6ff"/>
  <circle cx="58" cy="38" r="28" fill="#dbeafe"/>
  <circle cx="276" cy="145" r="38" fill="#dbeafe"/>
  <path d="M50 126C86 98 105 103 133 118c36 19 69 15 126-29" fill="none" stroke="#93c5fd" stroke-width="8" stroke-linecap="round"/>
  <rect x="102" y="21" width="116" height="142" rx="24" fill="url(#background)"/>
  <rect x="119" y="41" width="82" height="58" rx="10" fill="url(#screen)"/>
  <path d="M137 70h46M160 57v26" stroke="#1d4ed8" stroke-width="7" stroke-linecap="round"/>
  <g fill="#bfdbfe">
    <rect x="123" y="113" width="18" height="12" rx="4"/>
    <rect x="151" y="113" width="18" height="12" rx="4"/>
    <rect x="179" y="113" width="18" height="12" rx="4"/>
    <rect x="123" y="134" width="18" height="12" rx="4"/>
    <rect x="151" y="134" width="18" height="12" rx="4"/>
  </g>
  <rect x="179" y="134" width="18" height="12" rx="4" fill="#34d399"/>
  <path d="M226 48c19 7 31 23 31 42M229 66c9 5 14 13 14 24" fill="none" stroke="#2563eb" stroke-width="7" stroke-linecap="round"/>
</svg>
