<svg xmlns="http://www.w3.org/2000/svg" viewBox="0 0 330 330" role="img" aria-labelledby="title">
  <title id="title">IMAGEM NÃO DISPONÍVEL</title>
  <rect width="330" height="330" fill="#ffffff"/>
  <circle cx="165" cy="116" r="52" fill="#606060"/>
  <path d="M126 96h16l7-10h32l7 10h16c5 0 9 4 9 9v38c0 5-4 9-9 9h-78c-5 0-9-4-9-9v-38c0-5 4-9 9-9Zm39 8a21 21 0 1 0 0 42 21 21 0 0 0 0-42Zm0 9a12 12 0 1 1 0 24 12 12 0 0 1 0-24Z" fill="#ffffff"/>
  <rect x="133" y="88" width="11" height="3" rx="1.5" fill="#606060"/>
  <rect x="187" y="88" width="11" height="3" rx="1.5" fill="#606060"/>
  <text x="165" y="220" fill="#606060" font-family="Arial, Helvetica, sans-serif" font-size="37" font-weight="800" text-anchor="middle">IMAGEM, NÃO</text>
  <text x="165" y="267" fill="#606060" font-family="Arial, Helvetica, sans-serif" font-size="47" font-weight="800" text-anchor="middle">DISPONÍVEL</text>
</svg>
